<svg id="Logo" xmlns="http://www.w3.org/2000/svg" width="347.705" height="63.96" viewBox="0 0 347.705 63.96">
  <g id="Group_3059" data-name="Group 3059" transform="translate(2.66 2.595)" opacity="0.15">
    <path id="Path_1728" data-name="Path 1728" d="M140.161,17.505a52.534,52.534,0,0,0-9.662.793.956.956,0,0,0-.846.846l-.685,4.228c-.106.581.106.9.632.9h9.5c3.432,0,4.8,1.11,4.382,3.646l-.317,1.9h-6.706c-3.749,0-6.6.581-8.5,1.8-1.848,1.216-3.061,3.487-3.642,6.871-.633,4.069-.106,6.446,1.953,7.715,2.112,1.215,4.33,1.426,8.765,1.426a57.806,57.806,0,0,0,12.2-1.109,2.061,2.061,0,0,0,1.427-1.638l2.9-18.285c.476-3.117-.052-5.39-1.637-6.87S145.071,17.505,140.161,17.505Zm1.32,23.252a21.471,21.471,0,0,1-5.386.529c-3.379,0-4.384-.74-3.96-3.224.369-2.272,1.478-3.171,4.171-3.171h6.123Zm-60.35-22.67a32.955,32.955,0,0,0-6.917-.581,14.1,14.1,0,0,0-6.7,1.216c-2.112.9-3.538,3.064-4.013,6.235L60.064,46.518c-.106.581.106.846.633.846H66.98c.581,0,.845-.264.9-.846l3.115-19.552c.37-2.166,1.32-2.7,4.119-2.7h4.963a.953.953,0,0,0,1.056-.793l.686-4.333A.9.9,0,0,0,81.131,18.088ZM57.214,19.3c-1.9-1.269-4.541-1.8-9.135-1.8-5.491,0-9.292,1-11.352,3.012-2.059,1.956-3.59,5.972-4.541,12.048s-.686,10.094.739,12.1c1.426,1.955,4.91,2.959,10.348,2.959,5.65,0,8.818-.687,11.3-3.012,2.482-2.378,3.591-5.76,4.594-12.048C60.223,25.275,60.117,21.469,57.214,19.3ZM51.3,32.566c-.527,3.382-1.214,5.6-2.111,6.712-.845,1.057-2.482,1.585-4.858,1.585s-3.8-.528-4.33-1.638-.528-3.329.053-6.658q.791-5.073,2.059-6.658c.9-1.109,2.482-1.638,4.857-1.638s3.854.581,4.383,1.691S51.88,29.237,51.3,32.566Zm121.966-9.089.687-4.333a.9.9,0,0,0-.687-1.057,32.965,32.965,0,0,0-6.917-.581,14.107,14.107,0,0,0-6.706,1.216c-2.111.9-3.537,3.064-4.012,6.235L152.2,46.517c-.107.581.106.846.632.846h6.284c.58,0,.844-.264.9-.846l3.114-19.553c.37-2.166,1.321-2.7,4.119-2.7h4.962A.954.954,0,0,0,173.265,23.477Zm-45.83-5.707h-6.7c-.317,0-.581.264-.74.739L112.968,40.07c-.263.687-.633,1-1.056,1-.581,0-.633-.106-.686-1l-1.637-20.662c-.052-.476-.264-.74-.686-.74h-6.178a.955.955,0,0,0-.95.74L93.591,40.07c-.37.9-.528,1-1,1s-.686-.158-.686-1L91.69,18.509c-.052-.476-.211-.739-.528-.739H84.457a.667.667,0,0,0-.739.739l.739,23.833c.106,2.272.581,3.751,1.373,4.385.844.581,2.534.9,5.068.9,6.442-.317,6.389-.317,8.607-5.284l4.382-11.732.739,11.732c.158,2.536.263,3.54,1.319,4.385s2.376.9,5.6.9c2.534,0,4.329-.317,5.333-.951,1.056-.634,1.953-2.061,2.744-4.332l8.344-23.833C128.122,18.034,127.911,17.771,127.435,17.77Zm180.308-.265c-2.165,0-4.012.106-5.649.265L303.73,7.306c.052-.581-.159-.845-.687-.845h-6.23a.817.817,0,0,0-.9.845l-6.23,39.211c-.053.581.159.846.633.846h6.336c.581,0,.846-.264.9-.846l3.537-22.248h4.752c4.857,0,5.649.423,4.435,7.926l-2.27,14.322c-.053.581.159.846.633.846h6.284a.887.887,0,0,0,.95-.846l2.587-16.329C320.1,19.409,317.827,17.506,307.743,17.505ZM202.3,6.461h-6.284c-.474,0-.791.263-.9.845l-1.637,10.516a60.786,60.786,0,0,0-6.495-.317q-7.129,0-10.138,3.171c-1.953,2.06-3.431,6.077-4.329,11.943-1.848,11.89.158,14.955,11.3,15.007a75.975,75.975,0,0,0,11.828-1,1.372,1.372,0,0,0,1.267-1.322l6.072-37.995C203.044,6.726,202.779,6.462,202.3,6.461Zm-12.46,34.032a29.19,29.19,0,0,1-5.069.37c-2.535,0-4.066-.581-4.593-1.8s-.474-3.383.158-6.5c.581-3.488,1.268-5.707,2.112-6.711.9-1,2.64-1.533,5.227-1.533h4.752Zm72.862-20.768c-1.585-1.479-4.858-2.219-9.768-2.219a52.533,52.533,0,0,0-9.662.793.956.956,0,0,0-.846.846l-.685,4.228c-.106.581.106.9.633.9h9.5c3.432,0,4.8,1.11,4.382,3.646l-.315,1.9h-6.706c-3.749,0-6.6.581-8.5,1.8-1.848,1.216-3.062,3.487-3.643,6.87-.633,4.069-.106,6.446,1.953,7.715,2.112,1.215,4.33,1.426,8.765,1.426a57.828,57.828,0,0,0,12.2-1.109,2.063,2.063,0,0,0,1.427-1.638l2.9-18.284C264.818,23.477,264.289,21.2,262.706,19.725Zm-8.448,21.033a21.465,21.465,0,0,1-5.386.529c-3.379,0-4.382-.74-3.96-3.224.37-2.272,1.478-3.171,4.171-3.171h6.125Zm35.059-22.564a45.574,45.574,0,0,0-8.237-.687c-7.974,0-12.408,2.166-13.253,7.61l-.159,1c-.633,4.122.74,6.817,4.171,8.033l6.072,2.325c2.112.793,2.692,1.427,2.535,2.483l-.053.476c-.211,1.427-1.108,1.8-3.907,1.8H265.609a.825.825,0,0,0-.95.793l-.739,4.281c-.052.581.106.793.791.793a98.314,98.314,0,0,0,10.825.528c7.339,0,11.562-1.955,12.46-7.715l.106-.845c.633-3.964-.264-6.447-4.277-7.927l-6.389-2.377c-1.531-.634-2.27-1.427-2.112-2.431l.053-.529c.264-1.268,1.372-1.9,3.432-1.9h9.557a.9.9,0,0,0,1-.845L290,19.039C290.109,18.616,289.9,18.351,289.317,18.193ZM238.841,6.461h-6.23a.8.8,0,0,0-.9.793l-6.23,39.263c-.053.581.211.846.687.846H232.4a.888.888,0,0,0,.951-.846l6.177-39.263C239.58,6.726,239.369,6.461,238.841,6.461ZM225.113,18.193a45.561,45.561,0,0,0-8.236-.687c-7.974,0-12.408,2.166-13.254,7.61l-.158,1c-.633,4.122.739,6.817,4.171,8.033l6.072,2.325c2.111.793,2.692,1.427,2.533,2.483l-.052.476c-.211,1.427-1.109,1.8-3.908,1.8H201.407a.826.826,0,0,0-.951.793l-.739,4.281c-.053.581.106.793.792.793a98.306,98.306,0,0,0,10.824.528c7.339,0,11.564-1.955,12.462-7.715l.106-.845c.632-3.964-.265-6.447-4.278-7.927l-6.388-2.377c-1.531-.634-2.271-1.427-2.112-2.431l.053-.529c.263-1.268,1.372-1.9,3.431-1.9h9.557a.9.9,0,0,0,1-.845l.633-4.017C225.907,18.616,225.694,18.351,225.113,18.193Z" transform="translate(4.987 -1.032)" fill="#fff" opacity="0.15"/>
    <path id="Path_1729" data-name="Path 1729" d="M37.993,22.954a.648.648,0,0,0,.12-.841c-.329-.305-2.418-2.1-3.892-3.358q.589-3.395,1.15-5.87c.7-2.841,1.936-3.338,5.839-3.338h4.684a1.2,1.2,0,0,0,1.351-1.066l1.023-4.474c.192-.71-.062-1.137-.692-1.279a41.26,41.26,0,0,0-6.839-.639,18.7,18.7,0,0,0-7.971,1.35C30.061,4.575,28.1,7.2,27.187,11.18c-1.033,4.617-2.158,11.577-3.37,20.811A205.087,205.087,0,0,1,20.452,52.73c-.7,2.841-2,3.267-5.764,3.267H10a1.315,1.315,0,0,0-1.423,1.065l-.951,4.474c-.262.711-.009,1.137.691,1.279a34.019,34.019,0,0,0,6.768.639,18.027,18.027,0,0,0,7.9-1.349c2.847-1.137,4.806-3.764,5.722-7.742a210.6,210.6,0,0,0,3.37-20.81q.466-3.773.927-7.017C34.768,25.236,37.633,23.131,37.993,22.954Z" transform="translate(-0.839 -2.089)" fill="#fff" opacity="0.15"/>
    <path id="Path_1730" data-name="Path 1730" d="M14.524,41.287H15.2c.269,0,.432-.208.485-.623l.647-6.353a.843.843,0,0,0-.242-.747l-5.824-3.737,6.579-3.736a.945.945,0,0,0,.4-.748l.647-6.352q.081-.623-.324-.623H16.9a.86.86,0,0,0-.539.166L2.982,26.879a1.021,1.021,0,0,0-.377.706l-.458,4.484a.725.725,0,0,0,.242.705l11.649,8.346A.674.674,0,0,0,14.524,41.287ZM346.955,26.878l-11.649-8.345a.766.766,0,0,0-.486-.166h-.674q-.4,0-.484.623l-.647,6.352a.849.849,0,0,0,.241.748l5.825,3.736L332.5,33.563a.944.944,0,0,0-.4.747l-.647,6.353q-.08.623.324.623h.673a.969.969,0,0,0,.539-.166l13.375-8.346a.909.909,0,0,0,.35-.706l.46-4.484A.671.671,0,0,0,346.955,26.878Z" transform="translate(-2.142 1.847)" fill="#fff" opacity="0.15"/>
  </g>
  <path id="Path_1731" data-name="Path 1731" d="M138.019,15.416a52.524,52.524,0,0,0-9.662.793.956.956,0,0,0-.846.846l-.685,4.228c-.106.581.106.9.633.9h9.5c3.432,0,4.8,1.11,4.382,3.647l-.317,1.9h-6.706c-3.749,0-6.6.581-8.5,1.8-1.848,1.216-3.061,3.487-3.642,6.87-.633,4.069-.106,6.446,1.953,7.715,2.112,1.215,4.33,1.426,8.765,1.426a57.813,57.813,0,0,0,12.2-1.109,2.061,2.061,0,0,0,1.427-1.638l2.9-18.284c.476-3.118-.052-5.39-1.637-6.87S142.929,15.416,138.019,15.416Zm1.32,23.25a21.476,21.476,0,0,1-5.386.529c-3.379,0-4.382-.74-3.96-3.224.369-2.272,1.478-3.171,4.171-3.171h6.123ZM78.989,16a32.954,32.954,0,0,0-6.917-.581,14.1,14.1,0,0,0-6.705,1.216c-2.112.9-3.538,3.064-4.013,6.235L57.922,44.426c-.106.581.105.846.633.846h6.283c.581,0,.845-.265.9-.846l3.115-19.552c.37-2.166,1.32-2.7,4.119-2.7h4.963a.953.953,0,0,0,1.056-.793l.686-4.333A.9.9,0,0,0,78.989,16ZM55.072,17.212c-1.9-1.269-4.541-1.8-9.134-1.8-5.491,0-9.292,1-11.352,3.012-2.059,1.956-3.59,5.972-4.541,12.049s-.686,10.094.739,12.1c1.426,1.955,4.91,2.959,10.348,2.959,5.65,0,8.818-.687,11.3-3.012,2.482-2.378,3.591-5.76,4.594-12.048C58.081,23.183,57.976,19.379,55.072,17.212ZM49.158,30.476c-.527,3.382-1.214,5.6-2.111,6.711-.845,1.057-2.482,1.585-4.858,1.585s-3.8-.528-4.33-1.638-.528-3.329.053-6.658q.791-5.073,2.059-6.658c.9-1.109,2.482-1.638,4.857-1.638s3.854.581,4.383,1.691S49.738,27.147,49.158,30.476Zm121.966-9.089.687-4.333A.9.9,0,0,0,171.123,16a32.955,32.955,0,0,0-6.917-.581,14.1,14.1,0,0,0-6.7,1.216c-2.112.9-3.538,3.064-4.014,6.235l-3.431,21.561c-.107.581.106.846.632.846h6.284c.581,0,.844-.264.9-.846l3.116-19.553c.369-2.166,1.32-2.7,4.118-2.7h4.963A.953.953,0,0,0,171.123,21.387Zm-45.83-5.707h-6.7c-.317,0-.581.264-.74.739L110.826,37.98c-.263.687-.633,1-1.056,1-.581,0-.633-.106-.686-1l-1.637-20.662c-.052-.476-.264-.74-.686-.74h-6.177a.955.955,0,0,0-.95.74L91.449,37.98c-.37.9-.528,1-1,1s-.686-.158-.686-1l-.212-21.561c-.052-.476-.211-.739-.528-.739H82.315a.667.667,0,0,0-.739.739l.739,23.833c.106,2.272.581,3.751,1.373,4.386.844.581,2.534.9,5.068.9,6.442-.317,6.389-.317,8.607-5.284l4.382-11.732.739,11.732c.158,2.536.263,3.54,1.319,4.386s2.376.9,5.6.9c2.534,0,4.329-.317,5.332-.951,1.056-.634,1.953-2.061,2.745-4.333l8.344-23.833C125.98,15.943,125.769,15.68,125.293,15.68ZM305.6,15.416c-2.164,0-4.012.106-5.649.264l1.637-10.464c.052-.581-.159-.845-.687-.845h-6.23a.815.815,0,0,0-.9.845l-6.231,39.211c-.053.581.159.846.633.846h6.336c.581,0,.846-.264.9-.846l3.537-22.248H303.7c4.857,0,5.649.423,4.434,7.926l-2.27,14.321c-.053.581.159.846.633.846h6.284a.887.887,0,0,0,.95-.846L316.319,28.1C317.957,17.318,315.685,15.416,305.6,15.416ZM200.163,4.372h-6.284c-.474,0-.791.264-.9.845l-1.637,10.516a60.755,60.755,0,0,0-6.495-.317q-7.129,0-10.138,3.171c-1.953,2.061-3.431,6.077-4.329,11.943-1.848,11.89.159,14.955,11.3,15.007a75.963,75.963,0,0,0,11.828-1,1.372,1.372,0,0,0,1.267-1.321l6.072-38C200.9,4.635,200.638,4.372,200.163,4.372ZM187.7,38.4a29.165,29.165,0,0,1-5.069.37c-2.535,0-4.066-.581-4.593-1.8s-.474-3.383.158-6.5c.581-3.487,1.268-5.707,2.112-6.711.9-1,2.641-1.532,5.227-1.532h4.752Zm72.862-20.767c-1.585-1.479-4.858-2.22-9.768-2.22a52.532,52.532,0,0,0-9.662.793.953.953,0,0,0-.844.846l-.687,4.228c-.106.581.106.9.633.9h9.5c3.432,0,4.8,1.11,4.384,3.646l-.317,1.9H247.1c-3.749,0-6.6.581-8.5,1.8-1.848,1.216-3.062,3.487-3.642,6.871-.635,4.069-.106,6.446,1.952,7.715,2.112,1.215,4.33,1.426,8.766,1.426a57.834,57.834,0,0,0,12.2-1.109,2.064,2.064,0,0,0,1.426-1.638L262.2,24.5C262.676,21.387,262.147,19.113,260.564,17.635Zm-8.448,21.031a21.47,21.47,0,0,1-5.386.529c-3.379,0-4.382-.74-3.96-3.224.37-2.272,1.478-3.171,4.171-3.171h6.125ZM287.175,16.1a45.6,45.6,0,0,0-8.237-.687c-7.972,0-12.408,2.166-13.253,7.61l-.158,1c-.635,4.122.739,6.817,4.17,8.033l6.072,2.325c2.112.793,2.692,1.427,2.535,2.483l-.053.475c-.21,1.427-1.108,1.8-3.907,1.8H263.469a.825.825,0,0,0-.951.793l-.739,4.281c-.052.581.106.793.791.793a98.36,98.36,0,0,0,10.825.528c7.339,0,11.564-1.955,12.46-7.715l.106-.845c.635-3.964-.264-6.447-4.277-7.927l-6.389-2.377c-1.531-.634-2.27-1.427-2.111-2.431l.052-.529c.264-1.268,1.373-1.9,3.432-1.9h9.557a.9.9,0,0,0,1-.845l.635-4.017C287.967,16.526,287.756,16.261,287.175,16.1ZM236.7,4.372h-6.23a.806.806,0,0,0-.9.793l-6.23,39.263c-.053.581.211.846.687.846h6.229a.888.888,0,0,0,.951-.846l6.177-39.263C237.438,4.635,237.227,4.372,236.7,4.372ZM222.971,16.1a45.571,45.571,0,0,0-8.236-.687c-7.974,0-12.408,2.166-13.254,7.61l-.158,1c-.633,4.122.739,6.817,4.171,8.033l6.071,2.325c2.112.793,2.693,1.427,2.535,2.483l-.052.476c-.211,1.427-1.109,1.8-3.908,1.8H199.265a.826.826,0,0,0-.951.793l-.739,4.281c-.053.581.106.793.792.793a98.307,98.307,0,0,0,10.824.528c7.339,0,11.562-1.955,12.462-7.715l.106-.845c.632-3.964-.265-6.447-4.278-7.927l-6.388-2.378c-1.531-.634-2.271-1.427-2.112-2.431l.053-.529c.263-1.268,1.372-1.9,3.431-1.9h9.557a.9.9,0,0,0,1-.845l.633-4.017C223.765,16.526,223.552,16.261,222.971,16.1Z" transform="translate(7.129 1.057)" fill="#fff"/>
  <path id="Path_1732" data-name="Path 1732" d="M35.852,20.865a.647.647,0,0,0,.12-.841c-.329-.305-2.418-2.1-3.892-3.358q.589-3.395,1.15-5.87c.7-2.841,1.937-3.338,5.839-3.338h4.684A1.2,1.2,0,0,0,45.1,6.392l1.023-4.474c.191-.71-.062-1.137-.692-1.279A41.241,41.241,0,0,0,38.6,0a18.7,18.7,0,0,0-7.971,1.35c-2.705,1.136-4.663,3.764-5.579,7.741-1.033,4.617-2.158,11.577-3.37,20.811a205.084,205.084,0,0,1-3.365,20.739c-.7,2.841-2,3.268-5.764,3.268H7.863A1.315,1.315,0,0,0,6.44,54.973l-.951,4.474c-.262.711-.009,1.137.691,1.279a34.019,34.019,0,0,0,6.768.639,18.028,18.028,0,0,0,7.9-1.349c2.847-1.137,4.806-3.765,5.722-7.742a210.7,210.7,0,0,0,3.37-20.81q.465-3.773.927-7.017C32.627,23.145,35.492,21.041,35.852,20.865Z" transform="translate(1.303)" fill="#fff"/>
  <path id="Path_1733" data-name="Path 1733" d="M12.382,39.2h.674c.269,0,.432-.208.485-.623l.647-6.353a.843.843,0,0,0-.242-.747L8.122,27.736,14.7,24a.945.945,0,0,0,.4-.748l.647-6.352q.081-.623-.324-.623h-.674a.861.861,0,0,0-.539.166L.841,24.788a1.022,1.022,0,0,0-.377.706L.005,29.979a.725.725,0,0,0,.242.705L11.9,39.03A.676.676,0,0,0,12.382,39.2ZM344.813,24.789l-11.649-8.345a.764.764,0,0,0-.486-.166H332c-.268,0-.431.208-.484.623l-.647,6.352a.848.848,0,0,0,.241.748l5.825,3.736-6.579,3.737a.944.944,0,0,0-.4.747l-.647,6.353c-.055.415.055.623.324.623h.673a.97.97,0,0,0,.539-.166l13.375-8.346a.908.908,0,0,0,.35-.705l.459-4.484A.668.668,0,0,0,344.813,24.789Z" transform="translate(0 3.936)" fill="#fff"/>
</svg>
