<svg xmlns="http://www.w3.org/2000/svg" viewBox="0 0 26.216 26.216" fill="currentColor"><path d="M13.108 0a12.706 12.706 0 016.554 1.769 13.245 13.245 0 014.783 4.783 12.706 12.706 0 011.774 6.556 12.706 12.706 0 01-1.771 6.554 13.245 13.245 0 01-4.783 4.783 12.706 12.706 0 01-6.554 1.771 12.706 12.706 0 01-6.557-1.771 13.245 13.245 0 01-4.783-4.783A12.706 12.706 0 010 13.108a12.706 12.706 0 011.771-6.554 13.245 13.245 0 014.783-4.785A12.706 12.706 0 0113.108 0zm0 5.814a2.132 2.132 0 00-1.559.661 2.132 2.132 0 00-.661 1.559 2.132 2.132 0 00.661 1.559 2.132 2.132 0 001.559.661 2.132 2.132 0 001.559-.661 2.132 2.132 0 00.661-1.559 2.132 2.132 0 00-.661-1.559 2.132 2.132 0 00-1.559-.661zm2.96 13.425v-1.27a.632.632 0 00-.634-.634H14.8v-5.284a.612.612 0 00-.181-.449.612.612 0 00-.449-.185h-3.387a.612.612 0 00-.449.185.612.612 0 00-.185.449v1.269a.612.612 0 00.185.449.612.612 0 00.449.185h.636v3.383h-.636a.632.632 0 00-.634.634v1.268a.632.632 0 00.634.634h4.651a.632.632 0 00.634-.634z" data-name="Path 1727"/></svg>