<svg xmlns="http://www.w3.org/2000/svg" viewBox="0 0 20.011 22.87" fill="currentColor"><path d="M0 3.75a.517.517 0 00.156.38.517.517 0 00.38.156h18.939a.517.517 0 00.38-.156.517.517 0 00.156-.38V2.499a1.034 1.034 0 00-.313-.759 1.034 1.034 0 00-.759-.313h-5l-.4-.849a1 1 0 00-.4-.424 1.133 1.133 0 00-.581-.156H7.46a1.133 1.133 0 00-.581.156 1 1 0 00-.4.424l-.4.849h-5a1.034 1.034 0 00-.759.313 1.034 1.034 0 00-.32.761zm18.537 2.548a.6.6 0 00-.156-.4.487.487 0 00-.38-.179H2.01a.487.487 0 00-.38.179.6.6 0 00-.156.4l.893 14.562a2.028 2.028 0 00.67 1.429 2.1 2.1 0 001.474.581H15.5a2.1 2.1 0 001.474-.581 2.028 2.028 0 00.67-1.429z" data-name="Path 1221"/></svg>