<svg xmlns="http://www.w3.org/2000/svg" viewBox="0 0 36.453 19.424" fill="currentColor"><path d="M36.01 8.446a2.044 2.044 0 01.443 1.267 2.044 2.044 0 01-.443 1.267 18.98 18.98 0 01-7.4 6.123 23.293 23.293 0 01-10.385 2.322 23.293 23.293 0 01-10.377-2.323 18.98 18.98 0 01-7.4-6.123 2.044 2.044 0 01-.443-1.267 2.044 2.044 0 01.443-1.267 18.98 18.98 0 017.4-6.123A23.293 23.293 0 0118.225 0a23.293 23.293 0 0110.38 2.319 18.98 18.98 0 017.405 6.127zm-17.785 8.445a19.927 19.927 0 008.83-1.953 16.5 16.5 0 006.36-5.226 16.285 16.285 0 00-3.576-3.563 18.58 18.58 0 00-4.778-2.507 6.357 6.357 0 011.772 4.377 6.035 6.035 0 01-1.171 3.589 8.333 8.333 0 01-3.137 2.617 9.522 9.522 0 01-4.3.976 9.522 9.522 0 01-4.3-.976 8.333 8.333 0 01-3.135-2.612 6.035 6.035 0 01-1.17-3.594 6.162 6.162 0 011.012-3.374 2.634 2.634 0 001.044 2.085 3.777 3.777 0 002.5.871 3.777 3.777 0 002.5-.871 2.634 2.634 0 001.049-2.085 2.588 2.588 0 00-1.013-2.059 19.915 19.915 0 00-7.915 2.218 16.228 16.228 0 00-5.759 4.908 16.5 16.5 0 006.36 5.226 19.927 19.927 0 008.827 1.953z" data-name="Path 1164"/></svg>