<svg xmlns="http://www.w3.org/2000/svg" viewBox="0 0 33.878 30.113" fill="currentColor"><path d="M23.644 20.291a.4.4 0 00-.118.294v6.7H2.825v-20.7h14.231a.4.4 0 00.294-.118l1.882-1.882a.456.456 0 00.118-.529.417.417 0 00-.412-.294H2.825a2.723 2.723 0 00-2 .823 2.723 2.723 0 00-.823 2v20.7a2.723 2.723 0 00.823 2 2.723 2.723 0 002 .823h20.7a2.811 2.811 0 002.823-2.823v-8.523a.475.475 0 00-.823-.353zm9.234-11.88a3.321 3.321 0 001-2.441 3.321 3.321 0 00-1-2.441L30.349 1a3.321 3.321 0 00-2.441-1 3.321 3.321 0 00-2.441 1L9.999 16.468l-.589 5.294a2.363 2.363 0 00.706 2 2.363 2.363 0 002 .706l5.293-.588zm-5.823 1.823l-10.94 10.94-3.823.412.412-3.823 10.94-10.94zm3.823-4.705a.6.6 0 01.176.441.6.6 0 01-.176.441l-1.823 1.823-3.411-3.411L27.467 3a.6.6 0 01.441-.176.6.6 0 01.441.176z" data-name="Path 1163"/></svg>