<svg xmlns="http://www.w3.org/2000/svg" viewBox="0 0 21.141 26" fill="currentColor"><g data-name="Group 1998"><path d="M21.137 8.32a3.268 3.268 0 00-.978-2.4l-1.6-1.6q-1.641-1.637-3.276-3.28a3.385 3.385 0 00-2.479-1.043H8.691c-1.372 0-2.778 0-4.163.007a4.919 4.919 0 00-1.22.16A4.484 4.484 0 00.002 4.589V21.47a4.461 4.461 0 004.476 4.52q6.085.015 12.166 0a4.4 4.4 0 00.953-.1 4.49 4.49 0 003.539-4.4c.007-.84.006-1.685 0-2.479zm-1.7 13.156a2.756 2.756 0 01-2.252 2.772 3.211 3.211 0 01-.638.054H4.527a2.765 2.765 0 01-2.838-2.876V4.548a2.775 2.775 0 012.793-2.849c1.975-.013 3.981-.01 5.921-.007h2.462a1.567 1.567 0 011.152.485l4.955 4.957a1.564 1.564 0 01.469 1.159v3.4q.006 4.891.001 9.783z" data-name="Path 1180"/><path d="M15.108 10.235h-5.081a.88.88 0 00-.787.363.81.81 0 00-.062.864.819.819 0 00.759.464h5.158a.845.845 0 00.909-.835.852.852 0 00-.896-.856z" data-name="Path 1181"/><path d="M15.142 18.157h-.008a743.046 743.046 0 00-5.172 0h-.011a.888.888 0 00-.635.266.835.835 0 00-.231.608.844.844 0 00.9.815h5.127a.841.841 0 00.889-.831.84.84 0 00-.239-.6.889.889 0 00-.62-.258z" data-name="Path 1182"/><path d="M6.182 12.135h.013a1.047 1.047 0 00.74-.309 1.059 1.059 0 00.315-.76 1.067 1.067 0 00-1.061-1.043 1.056 1.056 0 00-1.053 1.052 1.069 1.069 0 001.046 1.06z" data-name="Path 1183"/><path d="M9.93 16.004h5.172a.939.939 0 00.668-.265.819.819 0 00.228-.583.841.841 0 00-.887-.839H9.962a1.007 1.007 0 00-.422.094.838.838 0 00-.436.948.828.828 0 00.826.645z" data-name="Path 1184"/><path d="M6.196 16.221a1.052 1.052 0 00.744-.313 1.047 1.047 0 00.311-.744 1.053 1.053 0 00-1.047-1.054h-.016a1.039 1.039 0 00-.737.3 1.043 1.043 0 00-.314.738 1.074 1.074 0 00.309.76 1.071 1.071 0 00.75.313z" data-name="Path 1185"/><path d="M6.205 17.942a1.107 1.107 0 00-1.068 1.041 1.063 1.063 0 00.3.758 1.08 1.08 0 00.752.309 1.057 1.057 0 001.057-1.052 1.065 1.065 0 00-1.041-1.056z" data-name="Path 1186"/></g></svg>