<svg xmlns="http://www.w3.org/2000/svg" viewBox="0 0 21.099 24.113" fill="currentColor"><path d="M14.788 13.564a6.177 6.177 0 013.155.848 6.259 6.259 0 012.308 2.308 6.177 6.177 0 01.849 3.155v1.978a2.18 2.18 0 01-.659 1.6 2.18 2.18 0 01-1.6.659H2.261a2.18 2.18 0 01-1.6-.659 2.18 2.18 0 01-.659-1.6v-1.978A6.177 6.177 0 01.85 16.72a6.259 6.259 0 012.308-2.308 6.177 6.177 0 013.155-.848 5.348 5.348 0 011.6.33q.659.188 1.083.283a7.939 7.939 0 001.554.141 7.939 7.939 0 001.55-.142q.424-.094 1.083-.283a5.348 5.348 0 011.605-.329zm4.8 8.289v-1.978a4.625 4.625 0 00-1.409-3.391 4.625 4.625 0 00-3.391-1.413 4.717 4.717 0 00-1.177.235 9.94 9.94 0 01-3.061.518 9.94 9.94 0 01-3.061-.518 4.717 4.717 0 00-1.177-.235 4.625 4.625 0 00-3.391 1.413 4.625 4.625 0 00-1.413 3.391v1.978a.733.733 0 00.212.542.733.733 0 00.542.212h16.577a.733.733 0 00.542-.212.733.733 0 00.211-.542zm-9.042-9.8a5.977 5.977 0 01-3.038-.8 5.865 5.865 0 01-2.19-2.19 5.977 5.977 0 01-.8-3.038 5.977 5.977 0 01.8-3.038 5.865 5.865 0 012.19-2.19A5.977 5.977 0 0110.55 0a5.977 5.977 0 013.038.8 5.865 5.865 0 012.19 2.19 5.977 5.977 0 01.8 3.038 5.977 5.977 0 01-.8 3.038 5.865 5.865 0 01-2.19 2.19 5.977 5.977 0 01-3.038.801zm0-10.55a4.36 4.36 0 00-3.2 1.319 4.36 4.36 0 00-1.319 3.2 4.36 4.36 0 001.319 3.2 4.36 4.36 0 003.2 1.319 4.36 4.36 0 003.2-1.319 4.36 4.36 0 001.319-3.2 4.36 4.36 0 00-1.319-3.2 4.36 4.36 0 00-3.196-1.315z" data-name="Path 1179"/></svg>