<svg xmlns="http://www.w3.org/2000/svg" viewBox="0 0 27.128 20.169" fill="currentColor"><g data-name="Group 1975"><path d="M19.632 17.604a2.386 2.386 0 012.541 0 2.432 2.432 0 00.463-.045 2.4 2.4 0 10-1.731-4.4 2.373 2.373 0 00-1.274-.366 2.405 2.405 0 000 4.809zm-.635-3.027a.89.89 0 011.319.063.759.759 0 001.065.113.8.8 0 00.112-.112.885.885 0 111.357 1.136.884.884 0 01-1.247.11h-.005a.741.741 0 01-.108-.108.735.735 0 00-.583-.266.753.753 0 00-.583.274.861.861 0 01-.684.319.893.893 0 01-.9-.89.876.876 0 01.258-.639z" data-name="Path 1156"/><path d="M27.1 10.57v-2.6a.364.364 0 01.01-.061.584.584 0 00.016-.122.551.551 0 00-.016-.12.317.317 0 01-.009-.057V6.259a2.811 2.811 0 00-2.824-2.792h-.643V2.83A2.811 2.811 0 0020.85 0H2.8A2.818 2.818 0 000 2.83v11.08a2.789 2.789 0 002.779 2.79H3.4v.637a2.844 2.844 0 002.817 2.829H24.28a2.855 2.855 0 002.823-2.83v-6.413a.369.369 0 01.01-.062.434.434 0 000-.228.368.368 0 01-.013-.063zm-22.186.9H25.59v5.867a1.331 1.331 0 01-1.311 1.318H6.222a1.32 1.32 0 01-1.306-1.317zm20.674-2.9v1.387H4.916V8.572zM6.22 4.979h18.065a1.3 1.3 0 011.315 1.28v.8H4.916v-.8a1.292 1.292 0 011.304-1.28zM1.512 2.83A1.3 1.3 0 012.8 1.513h18.056a1.3 1.3 0 011.273 1.317v.637H6.221A2.808 2.808 0 003.4 6.259v8.931h-.614a1.271 1.271 0 01-1.274-1.254z" data-name="Path 1157"/></g></svg>