<svg xmlns="http://www.w3.org/2000/svg" viewBox="0 0 39.966 27.661" fill="currentColor"><g data-name="Group 1971"><g data-name="Group 1970"><path d="M12.054 8.241h17.054a2.4 2.4 0 01.7.065l.061.019a16.075 16.075 0 011.9.69 7.012 7.012 0 011.557.942 6.77 6.77 0 011.917 2.343 10.205 10.205 0 01.786 2.073 10.063 10.063 0 01.165 1.65c.011.248.023.5.042.758 0 .052.011.1.019.154l.034.253h2.38l.017-.2a10.286 10.286 0 00-.446-4.207 9.146 9.146 0 00-1.823-3.279 14.69 14.69 0 00-1.741-1.716 9.824 9.824 0 00-3.341-1.708 11.066 11.066 0 00-3.137-.439c-3.946-.006-7.959 0-11.839 0h-4.307V0l-.331.189C9.7 1.34 7.671 2.514 5.708 3.649A1203.67 1203.67 0 01.34 6.742l-.335.191 12.054 6.962zm-2.628-3.8v4.99l-4.32-2.5z" data-name="Path 1170"/><path d="M39.967 20.739l-12.008-6.936v5.657h-.905l-4.344-.016-11.944-.042a5.729 5.729 0 01-1.975-.453 7.2 7.2 0 01-2.313-1.4 7.215 7.215 0 01-1.547-1.839 12.832 12.832 0 01-.446-.913l-.121-.264a5.517 5.517 0 01-.526-2.146c0-.12-.008-.24-.011-.36a28.489 28.489 0 00-.05-1.155.506.506 0 00-.425-.413 45.51 45.51 0 00-1.439-.01h-.7l.015.235c.019.3.024.6.03.884a9.983 9.983 0 00.145 1.793 11.723 11.723 0 00.675 2.41 9.877 9.877 0 001.465 2.395 10.259 10.259 0 003 2.518 8.31 8.31 0 002.379.958c.179.034.358.073.538.112a7.806 7.806 0 001.6.232c4.265.021 8.6.019 12.793.017h4.13v5.657zm-5.087 0l-4.37 2.525v-5.042z" data-name="Path 1171"/></g></g></svg>