<svg xmlns="http://www.w3.org/2000/svg" viewBox="0 0 21.6 20.8" fill="currentColor"><g data-name="Group 1907"><path d="M6.8 0h-4A2.8 2.8 0 000 2.8V18a2.8 2.8 0 002.8 2.8h4A2.8 2.8 0 009.6 18V2.8A2.8 2.8 0 006.8 0zM1.6 2.8a1.2 1.2 0 011.2-1.2h4A1.2 1.2 0 018 2.8V18a1.2 1.2 0 01-1.2 1.2h-4A1.2 1.2 0 011.6 18z" data-name="Path 1120"/><path d="M18.8 0h-4A2.8 2.8 0 0012 2.8v4a2.8 2.8 0 002.8 2.8h4a2.8 2.8 0 002.8-2.8v-4A2.8 2.8 0 0018.8 0zm-5.2 2.8a1.2 1.2 0 011.2-1.2h4A1.2 1.2 0 0120 2.8v4A1.2 1.2 0 0118.8 8h-4a1.2 1.2 0 01-1.2-1.2z" data-name="Path 1121"/><path d="M18.8 11.2h-4A2.8 2.8 0 0012 14v4a2.8 2.8 0 002.8 2.8h4a2.8 2.8 0 002.8-2.8v-4a2.8 2.8 0 00-2.8-2.8zM13.6 14a1.2 1.2 0 011.2-1.2h4A1.2 1.2 0 0120 14v4a1.2 1.2 0 01-1.2 1.2h-4a1.2 1.2 0 01-1.2-1.2z" data-name="Path 1122"/></g></svg>