<svg xmlns="http://www.w3.org/2000/svg" viewBox="0 0 27.128 24.114" fill="currentColor"><path d="M14.694 6.028a1.09 1.09 0 01-.33.8 1.09 1.09 0 01-.8.33 1.09 1.09 0 01-.8-.33 1.09 1.09 0 01-.33-.8 1.09 1.09 0 01.33-.8 1.09 1.09 0 01.8-.33 1.09 1.09 0 01.8.33 1.09 1.09 0 01.33.8zm11.68 1.507a.758.758 0 01.518.212.7.7 0 01.235.542v11.774a1.462 1.462 0 01-.259.848 1.6 1.6 0 01-.683.565l-7.159 2.5a3.21 3.21 0 01-1.884 0L9.043 21.1l-8.007 2.967a.889.889 0 01-.283.047.758.758 0 01-.518-.212A.7.7 0 010 23.36V11.586a1.462 1.462 0 01.259-.848 1.6 1.6 0 01.683-.565l7.065-2.449a5.481 5.481 0 01-.471-1.931 5.556 5.556 0 01.8-2.9 5.8 5.8 0 012.19-2.119 6.118 6.118 0 013.038-.777 6.118 6.118 0 013.038.777 5.8 5.8 0 012.19 2.119 5.6 5.6 0 01.8 2.92q0 1.578-1.978 4.545l.471.188 8.007-2.967a.889.889 0 01.282-.043zM8.289 19.781V9.231L1.46 11.586l.047 10.691zm5.275-18.274a4.488 4.488 0 00-3.2 1.248 4.025 4.025 0 00-1.319 3.038A6.893 6.893 0 0010.27 8.76a33.367 33.367 0 003.3 4.427 33.367 33.367 0 003.3-4.427 6.893 6.893 0 001.225-2.967 4.025 4.025 0 00-1.319-3.038 4.488 4.488 0 00-3.212-1.248zm3.768 20.911v-10.55l-.612-.188q-1.177 1.554-2.59 3.108a.713.713 0 01-.565.283.713.713 0 01-.565-.283 46.979 46.979 0 01-3.2-4v9zm1.507 0l6.829-2.355-.047-10.691-6.782 2.5z" data-name="Path 1173"/></svg>